<?xml version="1.0" encoding="UTF-8" standalone="no"?>
<!-- Created with Inkscape (http://www.inkscape.org/) -->

<svg
   width="7.4033675mm"
   height="4.7676516mm"
   viewBox="0 0 7.4033675 4.7676516"
   version="1.1"
   id="svg1"
   xml:space="preserve"
   xmlns:inkscape="http://www.inkscape.org/namespaces/inkscape"
   xmlns:sodipodi="http://sodipodi.sourceforge.net/DTD/sodipodi-0.dtd"
   xmlns="http://www.w3.org/2000/svg"
   xmlns:svg="http://www.w3.org/2000/svg"><sodipodi:namedview
     id="namedview1"
     pagecolor="#ffffff"
     bordercolor="#000000"
     borderopacity="0.25"
     inkscape:showpageshadow="2"
     inkscape:pageopacity="0.0"
     inkscape:pagecheckerboard="0"
     inkscape:deskcolor="#d1d1d1"
     inkscape:document-units="mm" /><defs
     id="defs1" /><g
     inkscape:label="Capa 1"
     inkscape:groupmode="layer"
     id="layer1"
     transform="translate(-85.729975,-144.606)"><path
       style="fill:#000000"
       d="m 86.327179,149.34616 c -0.289205,-0.0779 -0.5232,-0.32238 -0.582661,-0.6088 -0.01188,-0.0572 -0.01674,-0.26059 -0.01362,-0.56954 0.0046,-0.45547 0.0066,-0.48291 0.03895,-0.52616 0.07803,-0.10443 0.104174,-0.113 0.37639,-0.12337 0.229256,-0.009 0.258439,-0.0134 0.337238,-0.0537 0.19054,-0.0976 0.294018,-0.2647 0.293624,-0.47414 -3.97e-4,-0.21087 -0.108889,-0.37333 -0.314771,-0.47135 -0.08876,-0.0422 -0.120732,-0.0477 -0.33291,-0.0566 -0.254001,-0.0107 -0.282844,-0.0206 -0.359571,-0.12327 -0.03232,-0.0433 -0.03435,-0.0707 -0.03895,-0.52616 -0.0031,-0.30895 0.0017,-0.51232 0.01362,-0.56954 0.06023,-0.29011 0.295074,-0.53287 0.589751,-0.60963 0.142998,-0.0372 6.051779,-0.0372 6.194778,0 0.294676,0.0768 0.529524,0.31952 0.589751,0.60963 0.01188,0.0572 0.01674,0.26059 0.01362,0.56954 -0.0046,0.45547 -0.0066,0.48291 -0.03896,0.52616 -0.07673,0.10269 -0.105569,0.11258 -0.35957,0.12327 -0.212178,0.009 -0.24415,0.0144 -0.33291,0.0566 -0.206067,0.0981 -0.314538,0.26065 -0.314538,0.47135 0,0.20727 0.09515,0.36732 0.275549,0.46352 0.101677,0.0542 0.109961,0.0557 0.35508,0.0647 0.272303,0.01 0.29828,0.0185 0.376389,0.12301 0.03232,0.0433 0.03435,0.0707 0.03896,0.52616 0.0031,0.30895 -0.0017,0.51232 -0.01362,0.56954 -0.06023,0.29011 -0.295075,0.53287 -0.589751,0.60963 -0.138388,0.036 -6.067891,0.0353 -6.201868,-8.3e-4 z m 3.901361,-0.81671 c 0.0056,-0.34249 0.0094,-0.35655 0.118992,-0.43835 0.06403,-0.0478 0.220886,-0.0478 0.284919,0 0.109575,0.0818 0.113371,0.0958 0.118996,0.43879 l 0.0051,0.31347 0.841154,-0.005 c 0.820101,-0.004 0.842297,-0.005 0.886806,-0.0387 0.109543,-0.0818 0.113358,-0.0959 0.118978,-0.43836 l 0.0051,-0.31303 -0.05475,-2.9e-4 c -0.109481,-5.7e-4 -0.28938,-0.0503 -0.426256,-0.11774 -0.363846,-0.17937 -0.597321,-0.58151 -0.574715,-0.98991 0.02856,-0.51602 0.430038,-0.93156 0.967876,-1.00179 l 0.0878,-0.0115 -0.0051,-0.30914 -0.0051,-0.30914 -0.04765,-0.0624 c -0.08424,-0.11036 -0.06781,-0.10853 -0.976071,-0.10853 h -0.81804 l -0.0051,0.31304 c -0.0056,0.34249 -0.0094,0.35655 -0.118992,0.43835 -0.06403,0.0478 -0.220887,0.0478 -0.284919,0 -0.109555,-0.0818 -0.113373,-0.0959 -0.118992,-0.43835 l -0.0051,-0.31304 h -1.87752 c -2.089815,0 -1.944302,-0.008 -2.036415,0.11261 -0.04419,0.0579 -0.04458,0.0608 -0.04966,0.36771 l -0.0051,0.30938 0.09607,0.0117 c 0.415074,0.0504 0.776427,0.34129 0.908105,0.73112 0.162981,0.48251 -0.06632,1.03469 -0.52321,1.25992 -0.136397,0.0672 -0.316706,0.11716 -0.425254,0.11774 l -0.05374,2.9e-4 v 0.28831 c 0,0.29885 0.0092,0.35301 0.07138,0.42073 0.07971,0.0868 -0.0025,0.0834 2.015343,0.0841 l 1.88002,6.5e-4 z m 0.153144,-1.03222 c -0.06678,-0.0303 -0.136017,-0.11462 -0.148404,-0.18072 -0.0055,-0.0293 -0.0076,-0.19598 -0.0048,-0.37042 0.0057,-0.3471 0.0093,-0.36055 0.119044,-0.44249 0.06403,-0.0478 0.220886,-0.0478 0.284919,0 0.112704,0.0842 0.113855,0.0891 0.113855,0.4868 0,0.3392 -0.0021,0.36418 -0.03409,0.40705 -0.01875,0.0251 -0.05354,0.0602 -0.07732,0.0779 -0.05473,0.0409 -0.186283,0.0522 -0.253211,0.0219 z"
       id="path1" /></g></svg>
