<?xml version="1.0" encoding="UTF-8" standalone="no"?>
<!-- Created with Inkscape (http://www.inkscape.org/) -->

<svg
   width="126.98992mm"
   height="126.98821mm"
   viewBox="0 0 126.98992 126.98821"
   version="1.1"
   id="svg1"
   xml:space="preserve"
   xmlns:inkscape="http://www.inkscape.org/namespaces/inkscape"
   xmlns:sodipodi="http://sodipodi.sourceforge.net/DTD/sodipodi-0.dtd"
   xmlns="http://www.w3.org/2000/svg"
   xmlns:svg="http://www.w3.org/2000/svg"><sodipodi:namedview
     id="namedview1"
     pagecolor="#ffffff"
     bordercolor="#000000"
     borderopacity="0.25"
     inkscape:showpageshadow="2"
     inkscape:pageopacity="0.0"
     inkscape:pagecheckerboard="0"
     inkscape:deskcolor="#d1d1d1"
     inkscape:document-units="mm" /><defs
     id="defs1" /><g
     inkscape:label="Capa 1"
     inkscape:groupmode="layer"
     id="layer1"
     transform="translate(-51.39618,-84.269323)"><path
       style="fill:#ffffff"
       d="m 103.25143,203.59213 c -7.202214,-4.20946 -13.244634,-7.85829 -13.427604,-8.10852 -0.25823,-0.35315 -0.33268,-3.93029 -0.33268,-15.98549 0,-14.41286 0.0333,-15.56865 0.46303,-16.0601 0.25466,-0.29127 2.96333,-2.0011 6.01927,-3.79963 l 5.556254,-3.27005 12.52518,-0.13229 12.52518,-0.1323 0.50555,-0.62462 c 0.70391,-0.86971 0.64441,-2.03869 -0.14389,-2.82699 -0.64437,-0.64437 -0.68896,-0.64943 -5.72399,-0.64943 -6.08789,0 -6.76487,-0.15578 -8.5845,-1.97541 -1.67187,-1.67187 -1.97541,-2.66571 -1.97541,-6.46783 0,-2.7877 0.0374,-2.99526 0.64943,-3.60732 0.8592,-0.8592 2.07528,-0.8592 2.93447,0 0.61145,0.61144 0.64944,0.82107 0.64944,3.5839 0,2.76283 0.038,2.97245 0.64943,3.5839 0.64437,0.64437 0.68896,0.64943 5.72399,0.64943 6.08789,0 6.76487,0.15578 8.5845,1.97541 1.86987,1.86987 2.38663,3.84744 1.65364,6.32827 -0.42939,1.45331 -2.62124,3.64516 -4.07455,4.07456 -0.78278,0.23127 -4.36644,0.32176 -12.74322,0.32176 h -11.65419 l -3.462514,2.04095 c -1.90438,1.12252 -3.46106,2.10479 -3.45929,2.18281 0.004,0.17118 20.287884,12.01363 20.775104,12.12918 0.36473,0.0865 21.02584,-11.8649 21.02584,-12.16238 0,-0.0969 -0.77237,-0.60821 -1.71639,-1.13613 -1.81433,-1.01463 -2.25236,-1.53041 -2.25236,-2.65219 0,-0.888 1.10014,-1.98974 1.98684,-1.98974 0.82775,0 7.97349,4.09279 8.33938,4.77645 0.35186,0.65745 0.34713,31.07347 -0.005,31.73131 -0.36409,0.68031 -26.50933,15.88266 -27.28985,15.86789 -0.34442,-0.007 -6.51895,-3.45595 -13.72116,-7.6654 z m 11.31167,-22.90122 c -0.18337,-0.16937 -4.67918,-2.83716 -9.9907,-5.92843 -5.311514,-3.09126 -9.925184,-5.78863 -10.252604,-5.99414 l -0.59531,-0.37366 0.007,12.37537 0.007,12.37537 10.510094,6.11387 10.51009,6.11387 0.0688,-12.18716 c 0.0538,-9.53407 -0.004,-12.25419 -0.26459,-12.49509 z m 16.41365,17.87847 9.30788,-5.42396 0.003,-12.34915 0.003,-12.34915 -10.51718,6.13849 -10.51719,6.13848 -0.0688,12.36908 -0.0688,12.36907 1.27481,-0.73445 c 0.70114,-0.40395 5.46336,-3.17524 10.58269,-6.15841 z m -74.702839,-0.64943 -0.64943,-0.64944 v -43.15113 -43.15113 l 0.64943,-0.64944 c 0.85919,-0.85919 2.07528,-0.85919 2.93447,0 l 0.64943,0.64944 v 41.68389 41.6839 h 12.05057 12.05057 l 0.64943,0.64944 c 0.40937,0.40937 0.64943,0.95172 0.64943,1.46723 0,0.51551 -0.24006,1.05786 -0.64943,1.46724 l -0.64943,0.64943 h -13.5178 -13.51781 z m 93.133339,0 c -0.40937,-0.40938 -0.64943,-0.95173 -0.64943,-1.46724 0,-0.51551 0.24006,-1.05786 0.64943,-1.46723 l 0.64943,-0.64944 h 9.93391 9.9339 v -41.6839 -41.68389 l 0.64943,-0.64944 c 0.85919,-0.85919 2.07527,-0.85919 2.93447,0 l 0.64943,0.64944 v 43.15113 43.15113 l -0.64943,0.64944 -0.64943,0.64943 H 161.45782 150.05668 Z M 111.6846,134.80296 c -0.23564,-0.13768 -2.73533,-3.94406 -5.55486,-8.45862 -5.08693,-8.14504 -5.13334,-8.20829 -6.02317,-8.20829 -1.696474,0 -3.028294,-0.59703 -4.406674,-1.97541 -1.72487,-1.72487 -1.97541,-2.62755 -1.97541,-7.11727 v -3.60732 H 73.207241 52.690011 l -0.64943,-0.64943 c -0.8592,-0.8592 -0.8592,-2.07528 0,-2.93447 l 0.64943,-0.64943 h 20.51723 20.517245 v -2.116673 -2.11667 H 73.207241 52.690011 l -0.64943,-0.64943 c -0.8592,-0.8592 -0.8592,-2.07528 0,-2.93447 l 0.64943,-0.64943 h 20.51723 20.517245 v -1.49066 c 0,-0.81986 0.14479,-1.98072 0.32176,-2.57969 0.4294,-1.45331 2.62125,-3.64516 4.07456,-4.07456 0.79318,-0.23435 4.787604,-0.32176 14.703394,-0.32176 15.61872,0 15.29104,-0.0402 17.22743,2.11353 1.30658,1.45323 1.77286,2.73211 1.77286,4.86248 v 1.49066 h 22.6339 22.6339 l 0.64943,0.64943 c 0.85919,0.85919 0.85919,2.07527 0,2.93447 l -0.64943,0.64943 h -22.6339 -22.6339 v 2.11667 2.116673 h 22.6339 22.6339 l 0.64943,0.64943 c 0.85919,0.85919 0.85919,2.07527 0,2.93447 l -0.64943,0.64943 h -22.6339 -22.6339 v 3.60732 c 0,4.48972 -0.25054,5.3924 -1.97541,7.11727 -1.37839,1.37838 -2.71021,1.97541 -4.40668,1.97541 -0.88983,0 -0.9362,0.0632 -6.02597,8.21279 -2.82108,4.51703 -5.3427,8.32703 -5.60361,8.46666 -0.59691,0.31946 -1.56983,0.31372 -2.12822,-0.0125 z m 4.39939,-11.1542 c 1.74503,-2.78884 3.21248,-5.17009 3.26098,-5.29166 0.0485,-0.12158 -2.90821,-0.22105 -6.57048,-0.22105 -3.66228,0 -6.619,0.0995 -6.57049,0.22105 0.20967,0.52551 6.44694,10.36228 6.57049,10.36228 0.0752,0 1.56446,-2.28178 3.3095,-5.07062 z m 10.85773,-10.39548 0.64943,-0.64943 V 101.20272 89.801577 l -0.64943,-0.64944 -0.64943,-0.64943 h -13.5178 -13.517814 l -0.64943,0.64943 -0.64943,0.64944 v 11.401143 11.40113 l 0.64943,0.64943 0.64943,0.64944 h 13.517814 13.5178 z m -24.10113,-8.46666 c -1.31239,-1.31239 -0.38244,-3.5839 1.46723,-3.5839 0.51551,0 1.05786,0.24005 1.46724,0.64943 0.40937,0.40937 0.64943,0.95173 0.64943,1.46723 0,0.51551 -0.24006,1.05786 -0.64943,1.46724 -0.40938,0.40937 -0.95173,0.64943 -1.46724,0.64943 -0.51551,0 -1.05786,-0.24006 -1.46723,-0.64943 z m 0,-8.466673 c -1.31239,-1.31239 -0.38244,-3.5839 1.46723,-3.5839 1.08773,0 2.11667,1.02893 2.11667,2.11666 0,1.08773 -1.02894,2.11667 -2.11667,2.11667 -0.51551,0 -1.05786,-0.24006 -1.46723,-0.64943 z m 29.63333,33.866673 c -0.40937,-0.40938 -0.64943,-0.95173 -0.64943,-1.46724 0,-0.51551 0.24006,-1.05786 0.64943,-1.46723 l 0.64943,-0.64944 h 9.28447 9.28447 l 0.64943,0.64944 c 0.40937,0.40937 0.64943,0.95172 0.64943,1.46723 0,0.51551 -0.24006,1.05786 -0.64943,1.46724 l -0.64943,0.64943 h -9.28447 -9.28447 z m 12.7,-8.46667 c -0.40937,-0.40937 -0.64943,-0.95173 -0.64943,-1.46724 0,-0.5155 0.24006,-1.05786 0.64943,-1.46723 l 0.64943,-0.64943 h 9.28447 9.28447 l 0.64943,0.64943 c 0.40937,0.40937 0.64943,0.95173 0.64943,1.46723 0,0.51551 -0.24006,1.05787 -0.64943,1.46724 l -0.64943,0.64943 h -9.28447 -9.28447 z"
       id="path1"
       inkscape:export-filename="path1.svg"
       inkscape:export-xdpi="96"
       inkscape:export-ydpi="96" /></g></svg>
